<svg width="309" height="73" viewBox="0 0 309 73" fill="none" xmlns="http://www.w3.org/2000/svg">
<path d="M26.7202 36.5L-0.63991 83H-28L-0.63991 36.5H26.7202Z" fill="#B099FF"/>
<path d="M65.9929 -10L38.6328 36.5H11.2727L38.6328 -10H65.9929Z" fill="#B099FF"/>
<path d="M61.2802 36.5L33.9201 83H6.55998L33.9201 36.5H61.2802Z" fill="#B099FF"/>
<path d="M106.313 -10L78.9528 36.5H51.5927L78.9528 -10H106.313Z" fill="#B099FF"/>
<path d="M94.7929 36.5L67.4328 83H46.3563L73.7164 36.5H94.7929Z" fill="#B099FF"/>
<path d="M143.491 -10L116.131 36.5H95.0545L122.415 -10H143.491Z" fill="#B099FF"/>
<path d="M137.207 36.5L109.847 83H88.7709L116.131 36.5H137.207Z" fill="#B099FF"/>
<path d="M183.811 -10L156.451 36.5H140.611L167.971 -10H183.811Z" fill="#B099FF"/>
<path d="M180.669 36.5L153.309 83H137.469L164.829 36.5H180.669Z" fill="#B099FF"/>
<path d="M228.844 -10L201.484 36.5H185.644L213.004 -10H228.844Z" fill="#B099FF"/>
<path d="M219.942 36.5L192.582 83H180.931L208.291 36.5H219.942Z" fill="#B099FF"/>
<path d="M267.593 -10L240.233 36.5H230.153L257.513 -10H267.593Z" fill="#B099FF"/>
<path d="M263.306 36.5L235.945 83H226.389L253.749 36.5H263.306Z" fill="#B099FF"/>
<path d="M308.051 -10L280.691 36.5H275.323L302.684 -10H308.051Z" fill="#B099FF"/>
<path d="M308 36.5L280.64 83H277.891L305.251 36.5H308Z" fill="#B099FF"/>
<path d="M35 -10L7.63991 36.5H-19.7202L7.63991 -10H35Z" fill="#B099FF"/>
</svg>
