<svg width="11" height="11" viewBox="0 0 11 11" fill="none" xmlns="http://www.w3.org/2000/svg">
<path d="M8.77832 0.292847C9.16884 -0.0976776 9.80186 -0.0976776 10.1924 0.292847C10.5828 0.683377 10.5829 1.31641 10.1924 1.70691L6.65625 5.24207L10.1924 8.7782C10.5828 9.16873 10.5829 9.80178 10.1924 10.1923C9.80191 10.5827 9.16886 10.5826 8.77832 10.1923L5.24219 6.65613L1.70703 10.1923C1.31653 10.5827 0.683476 10.5827 0.292969 10.1923C-0.0975321 9.80176 -0.0974851 9.16873 0.292969 8.7782L3.82812 5.24207L0.292969 1.70691C-0.0975555 1.31638 -0.0975555 0.683371 0.292969 0.292847C0.683493 -0.0976776 1.31651 -0.0976776 1.70703 0.292847L5.24219 3.828L8.77832 0.292847Z" fill="black"/>
</svg>
