<svg width="15" height="15" viewBox="0 0 15 15" fill="none" xmlns="http://www.w3.org/2000/svg">
<path d="M6 12.83C6.08644 13.162 6.2806 13.456 6.55205 13.6658C6.82351 13.8757 7.1569 13.9895 7.5 13.9895C7.8431 13.9895 8.17649 13.8757 8.44795 13.6658C8.7194 13.456 8.91356 13.162 9 12.83M7.5 1C8.63778 1 9.72896 1.45198 10.5335 2.25651C11.338 3.06104 11.79 4.15222 11.79 5.29C11.79 10.06 13.53 11 14 11H1C1.48 11 3.21 10.05 3.21 5.29C3.21 4.15222 3.66198 3.06104 4.46651 2.25651C5.27104 1.45198 6.36222 1 7.5 1Z" stroke="#000001" stroke-width="2" stroke-linecap="round" stroke-linejoin="round"/>
</svg>
